<svg width="923" height="329" viewBox="0 0 923 329" fill="none" xmlns="http://www.w3.org/2000/svg">
<rect x="403.392" y="21.6373" width="102.706" height="43.7255" rx="21.8627" fill="white" fill-opacity="0.1"/>
<rect x="403.392" y="21.6373" width="102.706" height="43.7255" rx="21.8627" stroke="#171717" stroke-width="1.27451"/>
<path d="M438.89 35.7012H441.243V49.5H438.89V43.6797H432.122V49.5H429.749V35.7012H432.122V41.4434H438.89V35.7012ZM453.873 44.4219C453.873 44.7214 453.853 45.0143 453.814 45.3008H445.552C445.735 46.0365 446.119 46.6257 446.705 47.0684C447.297 47.5046 448.007 47.7227 448.834 47.7227C449.472 47.7227 450.064 47.5892 450.611 47.3223C451.164 47.0553 451.594 46.7201 451.9 46.3164L453.414 47.6152C452.886 48.2793 452.216 48.8001 451.402 49.1777C450.595 49.5553 449.719 49.7441 448.775 49.7441C447.161 49.7441 445.816 49.2298 444.742 48.2012C443.674 47.1725 443.14 45.8932 443.14 44.3633C443.14 43.3737 443.375 42.4753 443.843 41.668C444.312 40.8542 444.957 40.2161 445.777 39.7539C446.604 39.2917 447.519 39.0605 448.521 39.0605C450.051 39.0605 451.324 39.5716 452.34 40.5938C453.362 41.6094 453.873 42.8854 453.873 44.4219ZM448.502 41.082C447.779 41.082 447.148 41.3001 446.607 41.7363C446.073 42.1725 445.715 42.7487 445.533 43.4648H451.48C451.311 42.7487 450.953 42.1725 450.406 41.7363C449.866 41.3001 449.231 41.082 448.502 41.082ZM455.526 49.5V35.0957H457.772V49.5H455.526ZM460.128 49.5V35.0957H462.374V49.5H460.128ZM469.574 49.7441C468.018 49.7441 466.72 49.2331 465.678 48.2109C464.636 47.1888 464.115 45.9193 464.115 44.4023C464.115 42.8854 464.636 41.6159 465.678 40.5938C466.72 39.5716 468.018 39.0605 469.574 39.0605C470.59 39.0605 471.514 39.2949 472.348 39.7637C473.188 40.2259 473.845 40.8672 474.32 41.6875C474.796 42.5013 475.033 43.4062 475.033 44.4023C475.033 45.3984 474.796 46.3066 474.32 47.127C473.845 47.9408 473.188 48.582 472.348 49.0508C471.514 49.513 470.59 49.7441 469.574 49.7441ZM467.318 46.668C467.924 47.2734 468.676 47.5762 469.574 47.5762C470.473 47.5762 471.218 47.2734 471.811 46.668C472.41 46.056 472.709 45.3008 472.709 44.4023C472.709 43.4974 472.41 42.7422 471.811 42.1367C471.218 41.5247 470.473 41.2188 469.574 41.2188C468.676 41.2188 467.924 41.5247 467.318 42.1367C466.713 42.7487 466.41 43.5039 466.41 44.4023C466.41 45.3008 466.713 46.056 467.318 46.668ZM477.038 45.3203L476.901 39.0996V35.7012H479.274V39.0996L479.138 45.3203H477.038ZM478.073 49.6562C477.63 49.6562 477.263 49.5098 476.97 49.2168C476.683 48.9238 476.54 48.5592 476.54 48.123C476.54 47.6803 476.686 47.3125 476.979 47.0195C477.272 46.7266 477.637 46.5801 478.073 46.5801C478.522 46.5801 478.893 46.7266 479.186 47.0195C479.486 47.3125 479.636 47.6803 479.636 48.123C479.636 48.5658 479.486 48.9336 479.186 49.2266C478.893 49.513 478.522 49.6562 478.073 49.6562Z" fill="#171717"/>
<path d="M502.745 20C502.745 17 505.745 11 502.745 2M510.245 23.5C514.578 19.3333 523.445 9.2 524.245 2M513.245 30.5C515.912 30.5 523.045 29.1 530.245 23.5" stroke="#FEB273" stroke-width="4" stroke-linecap="round" stroke-linejoin="round"/>
<path d="M278.719 157V90.5H288.599V157H278.719ZM296.19 115.295L299.135 90.5H309.015L302.745 115.295H296.19ZM313.502 157V109.5H323.382V114.535C325.028 112.572 327.039 111.02 329.414 109.88C331.821 108.74 334.418 108.17 337.204 108.17C340.593 108.17 343.712 108.993 346.562 110.64C349.412 112.255 351.676 114.408 353.354 117.1C355.033 114.408 357.265 112.255 360.052 110.64C362.87 108.993 365.973 108.17 369.362 108.17C372.877 108.17 376.075 109.025 378.957 110.735C381.838 112.445 384.134 114.741 385.844 117.622C387.554 120.504 388.409 123.702 388.409 127.217V157H378.529V129.735C378.529 127.645 378.023 125.729 377.009 123.987C375.996 122.246 374.634 120.837 372.924 119.76C371.214 118.683 369.314 118.145 367.224 118.145C365.134 118.145 363.234 118.652 361.524 119.665C359.814 120.678 358.453 122.056 357.439 123.797C356.426 125.539 355.919 127.518 355.919 129.735V157H346.039V129.735C346.039 127.518 345.533 125.539 344.519 123.797C343.506 122.056 342.128 120.678 340.387 119.665C338.677 118.652 336.777 118.145 334.687 118.145C332.628 118.145 330.728 118.683 328.987 119.76C327.277 120.837 325.915 122.246 324.902 123.987C323.888 125.729 323.382 127.645 323.382 129.735V157H313.502ZM642.847 162.32L645.792 146.265H655.672L649.402 162.32H642.847ZM94.2288 185.5H105.771L129.949 252H119.499L114.891 239.365H85.1088L80.5488 252H70.0513L94.2288 185.5ZM88.7663 229.485H111.234L99.9763 198.61L88.7663 229.485ZM159.463 252V185.5H182.358C185.936 185.5 189.166 186.387 192.048 188.16C194.961 189.933 197.273 192.324 198.983 195.332C200.724 198.341 201.595 201.666 201.595 205.307C201.595 209.012 200.708 212.369 198.935 215.377C197.193 218.354 194.866 220.729 191.953 222.502C189.039 224.276 185.841 225.163 182.358 225.163H169.343V252H159.463ZM169.343 215.282H181.36C183.26 215.282 184.986 214.807 186.538 213.857C188.121 212.907 189.372 211.641 190.29 210.057C191.24 208.474 191.715 206.685 191.715 204.69C191.715 202.695 191.24 200.906 190.29 199.322C189.372 197.707 188.121 196.441 186.538 195.522C184.986 194.572 183.26 194.097 181.36 194.097H169.343V215.282ZM207.95 252V204.5H217.83V209.535C219.476 207.572 221.503 206.02 223.91 204.88C226.316 203.74 228.913 203.17 231.7 203.17C233.473 203.17 235.231 203.407 236.972 203.882L233.03 213.857C231.795 213.382 230.56 213.145 229.325 213.145C227.235 213.145 225.319 213.667 223.577 214.712C221.836 215.726 220.442 217.103 219.397 218.845C218.352 220.587 217.83 222.518 217.83 224.64V252H207.95ZM259.71 253.235C255.34 253.235 251.35 252.111 247.74 249.862C244.162 247.614 241.296 244.606 239.142 240.837C237.021 237.037 235.96 232.842 235.96 228.25C235.96 224.767 236.577 221.521 237.812 218.512C239.047 215.472 240.742 212.812 242.895 210.532C245.08 208.221 247.613 206.416 250.495 205.117C253.377 203.819 256.448 203.17 259.71 203.17C264.08 203.17 268.054 204.294 271.632 206.542C275.242 208.791 278.108 211.815 280.23 215.615C282.383 219.415 283.46 223.627 283.46 228.25C283.46 231.702 282.842 234.932 281.607 237.94C280.372 240.948 278.662 243.608 276.477 245.92C274.324 248.2 271.807 249.989 268.925 251.287C266.075 252.586 263.003 253.235 259.71 253.235ZM259.71 243.355C262.338 243.355 264.697 242.658 266.787 241.265C268.877 239.872 270.524 238.035 271.727 235.755C272.962 233.443 273.58 230.942 273.58 228.25C273.58 225.495 272.947 222.962 271.68 220.65C270.445 218.338 268.782 216.502 266.692 215.14C264.602 213.747 262.275 213.05 259.71 213.05C257.113 213.05 254.754 213.747 252.632 215.14C250.542 216.533 248.88 218.386 247.645 220.697C246.442 223.009 245.84 225.527 245.84 228.25C245.84 231.068 246.473 233.617 247.74 235.897C249.007 238.177 250.685 239.998 252.775 241.36C254.897 242.69 257.208 243.355 259.71 243.355ZM326.619 180.75H336.499V252H326.619V245.018C325.067 247.487 323.04 249.482 320.539 251.002C318.037 252.491 315.108 253.235 311.751 253.235C308.3 253.235 305.07 252.586 302.061 251.287C299.053 249.989 296.393 248.2 294.081 245.92C291.801 243.608 290.012 240.948 288.714 237.94C287.415 234.932 286.766 231.702 286.766 228.25C286.766 224.798 287.415 221.568 288.714 218.56C290.012 215.52 291.801 212.86 294.081 210.58C296.393 208.268 299.053 206.463 302.061 205.165C305.07 203.867 308.3 203.217 311.751 203.217C315.108 203.217 318.037 203.977 320.539 205.497C323.04 206.986 325.067 208.949 326.619 211.387V180.75ZM311.846 243.687C314.633 243.687 317.071 243.007 319.161 241.645C321.251 240.252 322.866 238.383 324.006 236.04C325.178 233.697 325.764 231.1 325.764 228.25C325.764 225.368 325.178 222.756 324.006 220.412C322.835 218.069 321.204 216.217 319.114 214.855C317.055 213.462 314.633 212.765 311.846 212.765C309.091 212.765 306.574 213.462 304.294 214.855C302.045 216.248 300.24 218.117 298.879 220.46C297.549 222.803 296.884 225.4 296.884 228.25C296.884 231.132 297.565 233.744 298.926 236.087C300.32 238.399 302.14 240.252 304.389 241.645C306.669 243.007 309.155 243.687 311.846 243.687ZM344.553 234.187V204.5H354.433V231.765C354.433 233.887 354.956 235.818 356.001 237.56C357.046 239.302 358.439 240.695 360.181 241.74C361.922 242.753 363.838 243.26 365.928 243.26C368.05 243.26 369.966 242.753 371.676 241.74C373.417 240.695 374.795 239.302 375.808 237.56C376.853 235.818 377.376 233.887 377.376 231.765V204.5H387.256L387.303 252H377.423L377.376 246.87C375.761 248.833 373.75 250.385 371.343 251.525C368.936 252.665 366.356 253.235 363.601 253.235C360.086 253.235 356.887 252.38 354.006 250.67C351.124 248.96 348.828 246.664 347.118 243.782C345.408 240.901 344.553 237.702 344.553 234.187ZM425.772 238.51L434.607 243.307C432.454 246.316 429.715 248.722 426.39 250.527C423.096 252.332 419.518 253.235 415.655 253.235C411.285 253.235 407.295 252.111 403.685 249.862C400.106 247.614 397.24 244.606 395.087 240.837C392.965 237.037 391.905 232.842 391.905 228.25C391.905 224.767 392.522 221.521 393.757 218.512C394.992 215.472 396.686 212.812 398.84 210.532C401.025 208.221 403.558 206.416 406.44 205.117C409.321 203.819 412.393 203.17 415.655 203.17C419.518 203.17 423.096 204.072 426.39 205.877C429.715 207.682 432.454 210.105 434.607 213.145L425.772 217.942C424.442 216.359 422.89 215.156 421.117 214.332C419.344 213.477 417.523 213.05 415.655 213.05C413.058 213.05 410.699 213.762 408.577 215.187C406.487 216.581 404.825 218.433 403.59 220.745C402.386 223.025 401.785 225.527 401.785 228.25C401.785 230.942 402.402 233.443 403.637 235.755C404.872 238.035 406.535 239.872 408.625 241.265C410.746 242.658 413.09 243.355 415.655 243.355C417.618 243.355 419.486 242.912 421.26 242.025C423.033 241.138 424.537 239.967 425.772 238.51ZM466.837 214.38H456.862L456.815 252H446.935L446.982 214.38H439.43V204.5H446.982L446.935 189.585H456.815L456.862 204.5H466.837V214.38ZM495.314 252V185.5H517.306C521.898 185.5 526.204 186.371 530.226 188.112C534.248 189.822 537.779 192.213 540.819 195.285C543.859 198.325 546.234 201.856 547.944 205.877C549.685 209.867 550.556 214.158 550.556 218.75C550.556 223.342 549.685 227.648 547.944 231.67C546.234 235.66 543.859 239.191 540.819 242.262C537.779 245.302 534.248 247.693 530.226 249.435C526.204 251.145 521.898 252 517.306 252H495.314ZM505.194 242.12H517.306C520.536 242.12 523.544 241.518 526.331 240.315C529.149 239.112 531.635 237.433 533.789 235.28C535.974 233.127 537.668 230.641 538.871 227.822C540.074 225.004 540.676 221.98 540.676 218.75C540.676 215.52 540.074 212.496 538.871 209.677C537.668 206.859 535.974 204.373 533.789 202.22C531.635 200.067 529.149 198.388 526.331 197.185C523.544 195.982 520.536 195.38 517.306 195.38H505.194V242.12ZM577.411 253.235C573.041 253.235 569.051 252.111 565.441 249.862C561.862 247.614 558.997 244.606 556.843 240.837C554.722 237.037 553.661 232.842 553.661 228.25C553.661 224.767 554.278 221.521 555.513 218.512C556.748 215.472 558.442 212.812 560.596 210.532C562.781 208.221 565.314 206.416 568.196 205.117C571.077 203.819 574.149 203.17 577.411 203.17C581.052 203.17 584.393 203.93 587.433 205.45C590.473 206.938 593.07 209.012 595.223 211.672C597.377 214.301 598.96 217.341 599.973 220.792C600.987 224.212 601.287 227.854 600.876 231.717H564.253C564.665 233.902 565.457 235.882 566.628 237.655C567.832 239.397 569.352 240.774 571.188 241.787C573.057 242.801 575.131 243.323 577.411 243.355C579.817 243.355 582.002 242.753 583.966 241.55C585.961 240.347 587.592 238.684 588.858 236.562L598.881 238.89C596.981 243.102 594.115 246.553 590.283 249.245C586.452 251.905 582.161 253.235 577.411 253.235ZM563.921 224.165H590.901C590.584 221.885 589.777 219.827 588.478 217.99C587.212 216.122 585.612 214.649 583.681 213.572C581.781 212.464 579.691 211.91 577.411 211.91C575.162 211.91 573.072 212.448 571.141 213.525C569.241 214.602 567.657 216.074 566.391 217.942C565.156 219.779 564.332 221.853 563.921 224.165ZM621.753 252.903C619.251 252.744 616.813 252.238 614.438 251.382C612.063 250.527 609.973 249.372 608.168 247.915C606.394 246.427 605.064 244.685 604.178 242.69L612.585 239.08C612.997 239.935 613.709 240.774 614.723 241.597C615.768 242.421 616.987 243.102 618.38 243.64C619.774 244.147 621.23 244.4 622.75 244.4C624.239 244.4 625.616 244.194 626.883 243.782C628.181 243.339 629.242 242.674 630.065 241.787C630.889 240.901 631.3 239.84 631.3 238.605C631.3 237.212 630.825 236.135 629.875 235.375C628.957 234.583 627.801 233.982 626.408 233.57C625.014 233.158 623.621 232.762 622.228 232.382C619.124 231.686 616.274 230.736 613.678 229.532C611.113 228.297 609.07 226.73 607.55 224.83C606.03 222.898 605.27 220.539 605.27 217.752C605.27 214.712 606.094 212.084 607.74 209.867C609.387 207.619 611.54 205.893 614.2 204.69C616.892 203.487 619.758 202.885 622.798 202.885C626.598 202.885 630.081 203.692 633.248 205.307C636.414 206.922 638.837 209.139 640.515 211.957L632.678 216.612C632.203 215.662 631.49 214.807 630.54 214.047C629.59 213.287 628.514 212.686 627.31 212.242C626.107 211.767 624.856 211.498 623.558 211.435C621.943 211.372 620.439 211.562 619.045 212.005C617.684 212.417 616.591 213.082 615.768 214C614.944 214.918 614.533 216.09 614.533 217.515C614.533 218.908 615.024 219.953 616.005 220.65C616.987 221.315 618.222 221.853 619.71 222.265C621.23 222.677 622.782 223.136 624.365 223.642C627.184 224.529 629.828 225.622 632.298 226.92C634.768 228.187 636.763 229.754 638.283 231.622C639.803 233.491 640.531 235.771 640.468 238.462C640.468 241.439 639.565 244.052 637.76 246.3C635.987 248.548 633.675 250.258 630.825 251.43C627.975 252.602 624.951 253.093 621.753 252.903ZM646.341 204.5H656.221V252H646.341V204.5ZM651.376 197.612C649.856 197.612 648.59 197.122 647.576 196.14C646.563 195.158 646.056 193.923 646.056 192.435C646.056 190.978 646.563 189.759 647.576 188.777C648.59 187.764 649.84 187.257 651.329 187.257C652.785 187.257 654.02 187.764 655.034 188.777C656.047 189.759 656.554 190.978 656.554 192.435C656.554 193.923 656.047 195.158 655.034 196.14C654.052 197.122 652.833 197.612 651.376 197.612ZM701.474 204.5H711.354V253.235C711.354 256.497 710.657 259.505 709.264 262.26C707.902 265.015 706.05 267.39 703.706 269.385C701.363 271.412 698.671 272.979 695.631 274.088C692.623 275.196 689.472 275.75 686.179 275.75C682.854 275.75 679.656 275.038 676.584 273.613C673.512 272.219 670.805 270.319 668.461 267.913C666.15 265.506 664.424 262.783 663.284 259.743L672.356 255.658C672.99 257.621 674.003 259.363 675.396 260.883C676.821 262.403 678.468 263.606 680.336 264.493C682.236 265.379 684.184 265.823 686.179 265.823C688.142 265.823 690.026 265.506 691.831 264.873C693.668 264.271 695.299 263.416 696.724 262.308C698.181 261.199 699.336 259.869 700.191 258.318C701.046 256.766 701.474 255.072 701.474 253.235V245.207C699.922 247.614 697.927 249.562 695.489 251.05C693.051 252.507 690.216 253.235 686.986 253.235C683.63 253.235 680.463 252.586 677.486 251.287C674.51 249.989 671.897 248.2 669.649 245.92C667.401 243.608 665.643 240.948 664.376 237.94C663.11 234.932 662.476 231.702 662.476 228.25C662.476 224.798 663.11 221.568 664.376 218.56C665.643 215.52 667.401 212.86 669.649 210.58C671.897 208.268 674.51 206.463 677.486 205.165C680.463 203.867 683.63 203.217 686.986 203.217C690.216 203.217 693.051 203.962 695.489 205.45C697.927 206.907 699.922 208.854 701.474 211.292V204.5ZM687.081 243.687C689.836 243.687 692.243 242.991 694.301 241.597C696.36 240.172 697.959 238.288 699.099 235.945C700.239 233.602 700.809 231.037 700.809 228.25C700.809 225.4 700.223 222.819 699.051 220.507C697.911 218.164 696.312 216.296 694.254 214.902C692.196 213.477 689.805 212.765 687.081 212.765C684.421 212.765 681.983 213.462 679.766 214.855C677.581 216.248 675.84 218.117 674.541 220.46C673.243 222.803 672.594 225.4 672.594 228.25C672.594 231.1 673.243 233.697 674.541 236.04C675.871 238.383 677.629 240.252 679.814 241.645C682.031 243.007 684.453 243.687 687.081 243.687ZM764.078 222.217V252H754.198V224.64C754.198 222.518 753.676 220.587 752.631 218.845C751.617 217.103 750.24 215.726 748.498 214.712C746.788 213.667 744.857 213.145 742.703 213.145C740.613 213.145 738.697 213.667 736.956 214.712C735.214 215.726 733.821 217.103 732.776 218.845C731.731 220.587 731.208 222.518 731.208 224.64V252H721.328V204.5H731.208V209.535C732.855 207.572 734.882 206.02 737.288 204.88C739.695 203.74 742.292 203.17 745.078 203.17C748.593 203.17 751.792 204.025 754.673 205.735C757.555 207.445 759.835 209.741 761.513 212.622C763.223 215.504 764.078 218.702 764.078 222.217ZM792.107 253.235C787.737 253.235 783.747 252.111 780.137 249.862C776.559 247.614 773.693 244.606 771.539 240.837C769.418 237.037 768.357 232.842 768.357 228.25C768.357 224.767 768.974 221.521 770.209 218.512C771.444 215.472 773.139 212.812 775.292 210.532C777.477 208.221 780.01 206.416 782.892 205.117C785.774 203.819 788.845 203.17 792.107 203.17C795.749 203.17 799.089 203.93 802.129 205.45C805.169 206.938 807.766 209.012 809.919 211.672C812.073 214.301 813.656 217.341 814.669 220.792C815.683 224.212 815.984 227.854 815.572 231.717H778.949C779.361 233.902 780.153 235.882 781.324 237.655C782.528 239.397 784.048 240.774 785.884 241.787C787.753 242.801 789.827 243.323 792.107 243.355C794.514 243.355 796.699 242.753 798.662 241.55C800.657 240.347 802.288 238.684 803.554 236.562L813.577 238.89C811.677 243.102 808.811 246.553 804.979 249.245C801.148 251.905 796.857 253.235 792.107 253.235ZM778.617 224.165H805.597C805.28 221.885 804.473 219.827 803.174 217.99C801.908 216.122 800.309 214.649 798.377 213.572C796.477 212.464 794.387 211.91 792.107 211.91C789.859 211.91 787.769 212.448 785.837 213.525C783.937 214.602 782.354 216.074 781.087 217.942C779.852 219.779 779.029 221.853 778.617 224.165ZM822.013 252V204.5H831.893V209.535C833.54 207.572 835.567 206.02 837.973 204.88C840.38 203.74 842.977 203.17 845.763 203.17C847.537 203.17 849.294 203.407 851.036 203.882L847.093 213.857C845.858 213.382 844.623 213.145 843.388 213.145C841.298 213.145 839.383 213.667 837.641 214.712C835.899 215.726 834.506 217.103 833.461 218.845C832.416 220.587 831.893 222.518 831.893 224.64V252H822.013ZM855.78 253.235C854.323 253.235 853.088 252.728 852.075 251.715C851.093 250.702 850.602 249.467 850.602 248.01C850.602 246.585 851.093 245.366 852.075 244.352C853.088 243.339 854.323 242.832 855.78 242.832C857.237 242.832 858.472 243.339 859.485 244.352C860.498 245.366 861.005 246.585 861.005 248.01C861.005 249.467 860.498 250.702 859.485 251.715C858.472 252.728 857.237 253.235 855.78 253.235Z" fill="#171717"/>
<path d="M427.018 158.235C424.675 158.235 422.379 157.839 420.13 157.048C417.914 156.256 415.903 155.084 414.098 153.532L420.415 145.932C421.207 146.597 422.157 147.167 423.265 147.642C424.374 148.117 425.625 148.355 427.018 148.355C428.918 148.355 430.644 147.864 432.195 146.882C433.779 145.869 435.045 144.555 435.995 142.94C436.945 141.293 437.42 139.536 437.42 137.667V90.5H447.3V137.667C447.3 141.372 446.382 144.792 444.545 147.927C442.709 151.031 440.255 153.532 437.183 155.433C434.143 157.301 430.755 158.235 427.018 158.235ZM494.248 109.5H504.128V157H494.201L493.821 150.112C492.427 152.551 490.543 154.514 488.168 156.002C485.793 157.491 482.991 158.235 479.761 158.235C476.277 158.235 473 157.586 469.928 156.287C466.857 154.957 464.149 153.121 461.806 150.777C459.494 148.434 457.689 145.742 456.391 142.702C455.092 139.631 454.443 136.337 454.443 132.822C454.443 129.434 455.077 126.252 456.343 123.275C457.61 120.267 459.367 117.638 461.616 115.39C463.864 113.142 466.461 111.384 469.406 110.117C472.382 108.819 475.565 108.17 478.953 108.17C482.405 108.17 485.445 108.962 488.073 110.545C490.733 112.097 492.934 114.092 494.676 116.53L494.248 109.5ZM479.523 148.687C482.31 148.687 484.748 148.007 486.838 146.645C488.928 145.252 490.543 143.383 491.683 141.04C492.855 138.697 493.441 136.1 493.441 133.25C493.441 130.368 492.855 127.756 491.683 125.412C490.512 123.069 488.881 121.217 486.791 119.855C484.732 118.462 482.31 117.765 479.523 117.765C476.768 117.765 474.251 118.462 471.971 119.855C469.691 121.248 467.886 123.117 466.556 125.46C465.226 127.803 464.561 130.4 464.561 133.25C464.561 136.132 465.242 138.744 466.603 141.087C467.997 143.399 469.817 145.252 472.066 146.645C474.346 148.007 476.832 148.687 479.523 148.687ZM554.932 127.217V157H545.052V129.64C545.052 127.518 544.529 125.587 543.484 123.845C542.471 122.103 541.093 120.726 539.352 119.712C537.642 118.667 535.71 118.145 533.557 118.145C531.467 118.145 529.551 118.667 527.809 119.712C526.067 120.726 524.674 122.103 523.629 123.845C522.584 125.587 522.062 127.518 522.062 129.64V157H512.182V109.5H522.062V114.535C523.708 112.572 525.735 111.02 528.142 109.88C530.548 108.74 533.145 108.17 535.932 108.17C539.447 108.17 542.645 109.025 545.527 110.735C548.408 112.445 550.688 114.741 552.367 117.622C554.077 120.504 554.932 123.702 554.932 127.217ZM582.96 158.235C578.59 158.235 574.6 157.111 570.99 154.862C567.412 152.614 564.546 149.606 562.393 145.837C560.271 142.037 559.21 137.842 559.21 133.25C559.21 129.767 559.828 126.521 561.063 123.512C562.298 120.472 563.992 117.812 566.145 115.532C568.33 113.221 570.864 111.416 573.745 110.117C576.627 108.819 579.699 108.17 582.96 108.17C586.602 108.17 589.943 108.93 592.983 110.45C596.023 111.938 598.62 114.012 600.773 116.672C602.926 119.301 604.51 122.341 605.523 125.792C606.536 129.212 606.837 132.854 606.425 136.717H569.803C570.215 138.902 571.006 140.882 572.178 142.655C573.381 144.397 574.901 145.774 576.738 146.787C578.606 147.801 580.68 148.323 582.96 148.355C585.367 148.355 587.552 147.753 589.515 146.55C591.51 145.347 593.141 143.684 594.408 141.562L604.43 143.89C602.53 148.102 599.665 151.553 595.833 154.245C592.001 156.905 587.71 158.235 582.96 158.235ZM569.47 129.165H596.45C596.134 126.885 595.326 124.827 594.028 122.99C592.761 121.122 591.162 119.649 589.23 118.572C587.33 117.464 585.24 116.91 582.96 116.91C580.712 116.91 578.622 117.448 576.69 118.525C574.79 119.602 573.207 121.074 571.94 122.942C570.705 124.779 569.882 126.853 569.47 129.165ZM637.668 119.38H627.693L627.646 157H617.766L617.813 119.38H610.261V109.5H617.813L617.766 94.585H627.646L627.693 109.5H637.668V119.38Z" fill="#FD853A"/>
<path d="M71.3106 280.231C69.6282 287.891 58.6036 301.529 61.2166 326.191M54.1233 267.089C40.7223 275.298 12.4002 296.199 6.31996 314.135M50.3888 247.533C43.5799 246.038 24.5811 245.612 3.05674 255.873" stroke="#FEB273" stroke-width="5" stroke-linecap="round" stroke-linejoin="round"/>
</svg>
