<svg width="47" height="46" viewBox="0 0 47 46" fill="none" xmlns="http://www.w3.org/2000/svg">
<rect x="0.5" width="46" height="46" rx="23" fill="#FD853A"/>
<path d="M20.575 14.375V26.05C20.575 28.0333 20.0333 29.55 18.95 30.6C17.8833 31.65 16.4083 32.175 14.525 32.175C12.525 32.175 10.925 31.6167 9.725 30.5C8.54167 29.3833 7.95 27.775 7.95 25.675H12.8C12.8167 27.0583 13.325 27.75 14.325 27.75C15.225 27.75 15.675 27.1833 15.675 26.05V14.375H20.575ZM29.2246 14.375C31.0746 14.375 32.6913 14.75 34.0746 15.5C35.4746 16.2333 36.5496 17.2667 37.2996 18.6C38.0496 19.9333 38.4246 21.4583 38.4246 23.175C38.4246 24.875 38.0413 26.3917 37.2746 27.725C36.5246 29.0583 35.4496 30.1083 34.0496 30.875C32.6663 31.625 31.0579 32 29.2246 32H22.2496V14.375H29.2246ZM28.8496 27.675C30.2829 27.675 31.4079 27.2833 32.2246 26.5C33.0413 25.7167 33.4496 24.6083 33.4496 23.175C33.4496 21.725 33.0413 20.6083 32.2246 19.825C31.4079 19.025 30.2829 18.625 28.8496 18.625H27.1496V27.675H28.8496Z" fill="white"/>
</svg>
